<?xml version="1.0" standalone="no"?>
<!DOCTYPE svg PUBLIC "-//W3C//DTD SVG 20010904//EN"
 "http://www.w3.org/TR/2001/REC-SVG-20010904/DTD/svg10.dtd">
<svg version="1.0" xmlns="http://www.w3.org/2000/svg"
 width="2042.000000pt" height="2042.000000pt" viewBox="0 0 2042.000000 2042.000000"
 preserveAspectRatio="xMidYMid meet">
<metadata>
Created by potrace 1.14, written by Peter Selinger 2001-2017
</metadata>
<g transform="translate(0.000000,2042.000000) scale(0.100000,-0.100000)"
fill="#000000" stroke="none">
<path d="M15857 16673 c-1 0 -63 -4 -137 -7 -116 -5 -209 -16 -335 -41 -96
-19 -337 -99 -453 -151 -20 -9 -50 -22 -67 -29 -93 -41 -207 -93 -395 -182
-187 -89 -364 -161 -537 -219 -150 -50 -371 -132 -411 -153 -59 -31 -449 -192
-572 -237 -52 -19 -104 -38 -115 -44 -33 -16 -161 -64 -315 -119 -80 -29 -154
-56 -165 -61 -11 -4 -45 -17 -75 -28 -132 -48 -334 -129 -445 -180 -66 -29
-154 -67 -195 -83 -41 -17 -88 -36 -105 -43 -16 -7 -77 -30 -135 -51 -373
-134 -606 -225 -755 -295 -70 -33 -181 -76 -525 -204 -113 -42 -221 -83 -240
-91 -19 -7 -89 -34 -155 -59 -206 -77 -525 -205 -585 -236 -19 -10 -163 -66
-320 -125 -430 -161 -699 -269 -883 -355 -23 -11 -118 -47 -212 -81 -211 -76
-733 -276 -820 -314 -16 -7 -61 -25 -100 -40 -38 -15 -83 -33 -100 -40 -69
-30 -703 -278 -860 -335 -148 -55 -257 -99 -460 -189 -27 -12 -63 -28 -80 -36
-113 -49 -69 -32 -545 -206 -283 -103 -460 -171 -537 -205 -17 -8 -35 -14 -40
-14 -6 0 -23 -6 -39 -14 -16 -8 -63 -28 -104 -46 -80 -34 -134 -58 -215 -95
-27 -12 -102 -41 -165 -64 -63 -23 -122 -45 -130 -48 -8 -3 -19 -7 -25 -9 -19
-5 -360 -132 -450 -167 -101 -40 -217 -89 -315 -134 -129 -60 -157 -71 -325
-133 -693 -253 -802 -310 -1201 -630 -44 -36 -96 -76 -114 -90 -77 -57 -172
-144 -243 -222 -114 -125 -324 -391 -398 -504 -166 -251 -312 -625 -384 -979
-8 -38 -17 -81 -20 -95 -10 -48 -30 -206 -40 -315 -7 -73 -7 -333 -1 -445 7
-129 34 -359 61 -515 16 -98 86 -374 136 -540 89 -295 216 -595 362 -860 24
-44 68 -125 97 -180 132 -250 235 -410 380 -590 53 -66 133 -168 178 -226 45
-58 112 -135 149 -170 71 -67 223 -220 377 -378 99 -102 201 -183 283 -224 28
-15 82 -53 120 -85 250 -214 550 -378 958 -523 89 -32 446 -139 514 -154 175
-40 306 -50 651 -49 262 1 457 9 510 22 19 5 60 20 90 34 30 14 100 36 155 48
214 47 427 128 556 213 14 9 60 28 103 42 108 35 223 93 341 170 67 45 115 69
150 76 27 6 127 48 220 95 94 46 173 84 177 84 22 0 571 268 1000 488 108 56
218 106 244 112 81 18 175 60 254 113 58 39 307 167 324 167 2 0 50 22 107 49
57 26 165 76 239 111 74 34 169 78 210 97 77 36 274 134 527 261 78 40 144 72
147 72 3 0 44 18 91 40 47 22 88 40 90 40 2 0 39 16 82 36 195 90 314 149 393
194 47 27 141 75 210 106 69 32 153 75 188 96 35 20 85 44 110 52 117 35 535
231 797 374 61 33 184 91 465 220 99 45 444 215 495 244 22 13 60 35 85 49 25
15 72 34 105 43 33 10 128 50 210 91 203 99 349 166 362 166 9 1 330 163 364
185 75 47 284 148 519 249 215 92 423 192 499 239 47 29 401 201 536 261 17 7
55 24 85 38 30 14 100 45 155 70 55 25 130 59 168 76 37 17 70 31 73 31 4 0
56 29 118 64 91 52 398 206 411 206 2 0 32 13 67 29 35 16 110 50 166 75 139
62 335 161 397 200 46 29 94 52 298 146 90 41 401 177 452 198 49 20 359 175
470 235 44 24 132 70 195 104 354 187 499 289 711 502 81 80 199 198 264 261
86 84 162 173 279 330 181 240 262 356 292 415 11 22 54 108 96 190 88 173
122 246 172 367 35 84 112 307 119 345 2 10 6 25 9 33 10 29 28 110 28 127 0
9 13 44 29 78 29 60 62 159 67 200 1 11 7 56 13 100 6 44 13 105 17 135 3 30
7 61 10 68 8 27 18 149 18 227 -1 209 -33 362 -162 775 -52 166 -255 487 -371
586 -141 121 -422 221 -611 218 -53 -1 -231 -14 -250 -19 -3 0 -30 -5 -60 -9
-30 -4 -62 -9 -70 -11 -43 -9 -82 -14 -145 -21 -38 -3 -72 -8 -75 -9 -12 -7
-29 11 -34 35 -16 83 -93 268 -156 375 -81 139 -213 313 -332 438 -67 70 -339
225 -433 248 -58 14 -473 19 -555 7 -30 -5 -88 -20 -128 -34 -41 -14 -75 -24
-76 -22 -1 2 -15 26 -31 53 -110 192 -258 341 -397 398 -20 8 -39 24 -43 35
-6 20 -87 54 -155 66 -14 2 -36 7 -50 10 -41 9 -91 16 -170 22 -71 5 -250 11
-253 7z"/>
</g>
</svg>
